<svg width="800" height="800" viewBox="0 0 800 800" fill="none" xmlns="http://www.w3.org/2000/svg">
<g clip-path="url(#clip0_1202_54)">
<path fill-rule="evenodd" clip-rule="evenodd" d="M66.6666 133.333C66.6666 114.924 81.5906 100 100 100H700C718.41 100 733.333 114.924 733.333 133.333C733.333 151.743 718.41 166.667 700 166.667V533.333C700 570.153 670.153 600 633.333 600H464.843L541.273 676.43C554.29 689.447 554.29 710.553 541.273 723.57C528.253 736.587 507.15 736.587 494.133 723.57L399.85 629.29L305.57 723.57C292.552 736.587 271.447 736.587 258.429 723.57C245.412 710.553 245.412 689.447 258.429 676.43L334.86 600H166.667C129.848 600 100 570.153 100 533.333V166.667C81.5906 166.667 66.6666 151.743 66.6666 133.333ZM541.427 239.059C554.447 226.042 575.55 226.042 588.57 239.059C601.587 252.077 601.587 273.182 588.57 286.2L447.38 427.387C434.233 440.537 412.917 440.537 399.767 427.387L329.33 356.95L258.62 427.66C245.602 440.677 224.497 440.677 211.479 427.66C198.462 414.643 198.462 393.537 211.479 380.52L305.524 286.475C318.671 273.327 339.987 273.327 353.137 286.475L423.573 356.913L541.427 239.059Z" fill="url(#paint0_radial_1202_54)"/>
</g>
<defs>
<radialGradient id="paint0_radial_1202_54" cx="0" cy="0" r="1" gradientUnits="userSpaceOnUse" gradientTransform="translate(77.5 755.5) rotate(-45) scale(927.017 975.809)">
<stop offset="0.588741" stop-color="#007BFF"/>
<stop offset="1" stop-color="#00C2FF"/>
</radialGradient>
<clipPath id="clip0_1202_54">
<rect width="800" height="800" fill="white"/>
</clipPath>
</defs>
</svg>
